/* XPM */
static char *dummy[]={
"32 32 453 2",
".y c #617a96",
".c c #627592",
".L c #63728c",
".Q c #64768e",
".8 c #667590",
".k c #66798e",
".w c #687792",
"#w c #687893",
".V c #697793",
".Y c #697c92",
".N c #697d8f",
"dB c #697e9c",
"#n c #6b7a97",
".U c #6b8093",
"dh c #6b86a5",
"bP c #6c81a0",
"dv c #6c89a2",
".G c #6d738d",
"#o c #6d7d99",
"cG c #6d7d9a",
"#p c #6e7a97",
"cu c #6e829c",
"#G c #6e8396",
".A c #6f778f",
"dD c #6f809c",
"fa c #6f869f",
"bi c #6f8ca6",
".q c #707990",
"co c #70809e",
"bx c #70859c",
".p c #717e97",
"ca c #7283a0",
"eo c #728aa0",
".O c #737c92",
"bF c #737f9e",
"c2 c #73899d",
".z c #74788c",
"eT c #747f90",
"ey c #748099",
"by c #74809b",
".K c #75839c",
"dK c #767a94",
"e4 c #76809b",
"#f c #76849b",
"cm c #7686a2",
"#c c #777392",
"#b c #777b94",
"dJ c #787e95",
"dj c #78829a",
"f. c #78869d",
".7 c #7886a0",
"#2 c #788ba7",
"d0 c #788c9d",
"#x c #798197",
"dR c #7a7e93",
"a4 c #7a81a0",
"bs c #7a839d",
"cV c #7a93af",
"dk c #7b7d98",
"cL c #7b809b",
"dp c #7b859d",
"cl c #7b859e",
"dA c #7b889e",
"aP c #7b8aa5",
"cO c #7b8eab",
"br c #7c8aa6",
"cn c #7d849c",
"ds c #7d899a",
"bT c #7d8fa7",
"bE c #7d98b0",
"bV c #7e809c",
"eh c #7e85a0",
"eQ c #7e869b",
"ck c #7e879e",
"cZ c #7e88a1",
"bl c #7e8ba2",
"bH c #7e8da6",
"cX c #7e8da9",
".s c #7e94ac",
"bv c #7e96b1",
"cK c #7f849a",
"cY c #7f849f",
".P c #7f8ea5",
".e c #7f91a9",
"bh c #7f91ad",
"cd c #7f92a8",
"c6 c #807b9c",
"cA c #80889b",
"bO c #808c9e",
".C c #8092a6",
"a8 c #8190ab",
"cD c #8196a8",
"er c #8199ad",
"cc c #828da7",
"cs c #828daa",
".t c #8291a7",
".# c #8294a6",
".J c #8492a9",
"da c #8493ad",
"#g c #8495ab",
".m c #8497a6",
"du c #858da4",
".u c #8590a6",
"eu c #8590a8",
".6 c #8594ac",
"ba c #868ca7",
"#r c #8695ad",
"eB c #8795aa",
"#A c #8799af",
"b8 c #888ea6",
".b c #888fa6",
"ee c #8893ad",
"an c #8896af",
"dO c #88a1b6",
"#I c #898ea6",
".v c #8991a9",
"f# c #8992a6",
".j c #8993a7",
".i c #8997ac",
"dm c #899bb6",
"dM c #899caf",
"cb c #8a91a7",
"bU c #8b8da7",
".F c #8b92a6",
".0 c #8b93aa",
"cr c #8b94aa",
"aX c #8b95ac",
"#h c #8b9ab2",
"cz c #8ba3bd",
"Qt c #8c90a6",
"cj c #8c91a6",
"aw c #8c91aa",
"eK c #8c95a8",
".o c #8c96a9",
".a c #8c98aa",
"aO c #8c9cb5",
"dE c #8c9fb3",
"bn c #8c9fba",
"bo c #8d89a7",
".n c #8d8da6",
"eS c #8d92a5",
".E c #8d92a8",
"aK c #8d93a9",
"c7 c #8d94a7",
".D c #8d96a6",
"a. c #8d98a9",
"e3 c #8d99a7",
".Z c #8d9bb0",
"aA c #8da0b7",
"dn c #8e9db6",
"ad c #8ea8be",
"#t c #8f96ae",
"bb c #8f9fb8",
"aq c #8fa3b7",
"bf c #9093a8",
"d9 c #9093ab",
"#s c #9098ae",
"eb c #909db1",
"eW c #90a3b7",
".1 c #919dac",
"en c #919db1",
"am c #91a1ba",
".R c #91a3b5",
"a1 c #91a6b7",
"aY c #929eb6",
"bG c #929eb9",
"ex c #929fb3",
"eF c #92a0b2",
"e8 c #92a2b2",
".W c #92a3b9",
".f c #92a6b8",
"dU c #939db1",
"dF c #939eb2",
"#V c #93a2b9",
"dN c #949ab1",
"## c #94a0b5",
".g c #94a1b5",
"ed c #94a3b4",
"aV c #94a4bb",
"eJ c #94a5b3",
"#R c #959db3",
"bY c #959db6",
"ew c #959fb4",
"eE c #96a3b6",
"dt c #9797b3",
".I c #979caf",
"do c #979db1",
"a3 c #979fb6",
"ab c #979fba",
"aN c #97a1b7",
"bD c #97a2b8",
"ag c #97a6bd",
".B c #98a2b4",
"eX c #999fb2",
"em c #99a1b3",
"ac c #99a1b7",
"eI c #99a2b4",
"e7 c #99a5b7",
"dr c #99a8be",
"aE c #9a9eb7",
"bZ c #9aa4b9",
"bt c #9aa5ba",
"aL c #9aa7bb",
"az c #9aa8be",
"#v c #9aaab9",
"aW c #9b9bb7",
".l c #9b9eb1",
"eD c #9b9fb2",
".T c #9ba1b3",
"#d c #9ba1b4",
"a7 c #9ba1b5",
"aI c #9ba1b9",
"eZ c #9ba4b4",
"eY c #9ba4b5",
"b. c #9ba5b6",
"bm c #9ba8b8",
"di c #9babbc",
"eR c #9ca1b1",
".h c #9ca1b4",
"ea c #9ca2b7",
"fc c #9ca4b2",
"cF c #9cafc6",
"dL c #9da7bc",
"cq c #9da9bf",
".5 c #9ea0b3",
"dz c #9ea7bb",
"c9 c #9eacc0",
"aM c #9eb3c9",
"#m c #9fa6b9",
"#U c #9fadc2",
"au c #9fadc3",
"bQ c #9fafc1",
"ai c #9fb0c7",
".d c #9fb1c2",
"b5 c #9fb3c7",
"dI c #a0aabd",
"dy c #a0abbf",
"eH c #a0acbe",
".r c #a0aebd",
"aC c #a0b0c4",
"cy c #a0b7ca",
"eL c #a1adbf",
"d. c #a1adc3",
"bq c #a1afc5",
"bS c #a1b2c1",
"aB c #a1b2c4",
"ep c #a2abbe",
"c5 c #a2abc2",
".X c #a2afc1",
"#a c #a2b0c4",
"e0 c #a2b1bd",
"#F c #a3a1b8",
"#q c #a3a8b8",
"dQ c #a3abba",
"el c #a3b1c2",
"b# c #a3b1c7",
"#9 c #a3b5c5",
"#X c #a4aabb",
".M c #a4abbc",
"cP c #a4afc4",
"b1 c #a4afc6",
"bI c #a5aac0",
"aR c #a5b3c8",
"#W c #a6acbb",
"eq c #a6acbc",
"bC c #a6acc0",
"c4 c #a6acc3",
"b4 c #a6adc1",
"ez c #a6afbe",
"#l c #a6b5c9",
"#y c #a6b8cb",
"eG c #a7aebc",
"c8 c #a7aec2",
"a0 c #a7aec4",
"e5 c #a7b1c0",
".x c #a7b1c1",
"dH c #a7bbcc",
"c0 c #a8aec0",
"cQ c #a8afc4",
"a6 c #a8b0c7",
"aQ c #a8b1c5",
"av c #a8b2c6",
"bu c #a8b5c9",
"#E c #a8b7c7",
"cx c #a9abc0",
"db c #a9b0c2",
"d8 c #a9b1c2",
"bW c #a9b1c3",
"bK c #a9b2c4",
"d# c #a9b4c7",
"bN c #aaa8c0",
"cp c #aaaebf",
"b6 c #aaaec2",
"al c #aaafc4",
"c3 c #aab0c0",
"be c #aab1c4",
"d6 c #aab2c3",
"b3 c #aab3c2",
"aj c #aab4c6",
"de c #aab4c7",
"dS c #aab4c8",
"d7 c #aab5c6",
"#3 c #aab7ca",
"dl c #aab9cd",
"ak c #abb1c3",
"bd c #abb1c6",
"d1 c #abb3c3",
"as c #abb6c8",
"cS c #abb7ca",
"dG c #abb8ca",
"#8 c #acacc4",
"#. c #acb2c1",
"#e c #acb4c1",
"cf c #acb4c4",
".9 c #acb5c5",
"at c #acb7c5",
"dC c #acb9cc",
".S c #adaec2",
"bB c #adc0d4",
"#O c #aeb8cb",
"dw c #aeb8cc",
"#i c #aebacb",
"bj c #aebbcf",
"cT c #aebdd2",
"dX c #afb4c7",
"#B c #afb7c7",
"eO c #afbccc",
"ao c #afc3d5",
"dY c #b0b9c9",
"e2 c #b0bac9",
"es c #b0bbc9",
"dV c #b0bbcb",
"cU c #b0bdd1",
"b7 c #b0bfd0",
"eN c #b1bbcb",
"ax c #b1bed2",
"#Y c #b2b9ca",
"e9 c #b2bbc9",
"dx c #b2bbcc",
"bL c #b2bcd0",
"bz c #b2bcd1",
"e6 c #b3bdcc",
"bM c #b3c0d3",
"eP c #b4bac9",
"#P c #b4bbca",
"ev c #b4bbcb",
"#J c #b4bbcc",
"cE c #b4bccf",
"#Q c #b4bdce",
"dZ c #b4bece",
"d3 c #b4bfd0",
"#N c #b5b6cb",
"fb c #b5bcca",
"ay c #b5bdd2",
"aa c #b5bed0",
".3 c #b5bfcf",
"ei c #b5c1ce",
"eA c #b6bbc9",
"et c #b6bdca",
".H c #b6bdcb",
"cJ c #b6bdcf",
"a# c #b6bfd1",
"eg c #b6c0d0",
"aS c #b6c2d4",
"d5 c #b6c3cf",
"eV c #b7bbca",
"ci c #b7bcd0",
"eU c #b7bdc9",
"ej c #b7bfce",
"dg c #b7bfd0",
"b2 c #b8bfcf",
"aD c #b8bfd1",
"cw c #b8c1cf",
"bR c #b8c1d2",
"ec c #b8c2d1",
"a9 c #b8c2d3",
"bw c #b8c3d4",
"#k c #b8c6d6",
"bg c #b9bad0",
"d2 c #b9bece",
".2 c #b9bfd0",
"cW c #b9c3d1",
"#C c #b9c5d3",
"ek c #bac0ce",
"#u c #bac6d3",
".4 c #bbc3d0",
"e. c #bbc4d2",
"d4 c #bcbdce",
"dT c #bcc4d4",
"#K c #bcc7d8",
"#z c #bdc4d5",
"dP c #bdc5d4",
"#1 c #bdcddc",
"#j c #bec5d3",
"#L c #bec9da",
"dW c #bfc4d3",
"#D c #bfc7d5",
"#5 c #bfc8d9",
"#S c #c0cbdb",
"bA c #c0cfe0",
"#M c #c1c7d8",
"#4 c #c1c8da",
"ch c #c1ccdd",
"c. c #c1cddf",
"ah c #c1cedd",
"#0 c #c2c8d8",
"#H c #c2c9d8",
"aZ c #c2cdde",
"aU c #c2cfdd",
"#7 c #c3cbda",
"b9 c #c3cedf",
"a2 c #c3d1de",
"#6 c #c4c6d8",
"dq c #c4cdd9",
"bk c #c4cdde",
"ap c #c5d0e0",
"cg c #c6ccdd",
"ct c #c6cddf",
"ae c #c6cede",
"bc c #c7cddd",
"cC c #c7cedd",
"cR c #c7cfde",
"af c #c7d1e0",
"bJ c #c8cddd",
"bp c #c8d0df",
"aJ c #c8d1df",
"bX c #c8d2e1",
"c# c #c9cbdd",
"aG c #c9cedd",
"cv c #c9cede",
"a5 c #c9d0dd",
"aH c #c9d2de",
"eM c #d6d1ce",
"e1 c #d7d1ce",
"eC c #d7d2cf",
"e# c #dbd8d5",
"ef c #dcd8d3",
"#T c #e4e1dd",
"#Z c #e6e0dd",
"ar c #e9e6e3",
"dd c #e9e7e5",
"cN c #eae6e3",
"dc c #eae7e3",
"c1 c #ebe6e2",
"ce c #ebe6e3",
"cH c #ebe7e3",
"cI c #ebe7e4",
"aT c #ebe8e5",
"cM c #ece6e2",
"aF c #ece7e2",
"cB c #ece7e3",
"df c #ece8e2",
"b0 c #ece8e4",
"Qt.#.a.#.b.c.d.e.f.g.h.i.j.k.l.k.a.m.a.n.o.p.q.rQt.s.t.u.v.w.x.o",
".y.z.u.#.A.B.C.g.j.D.E.F.G.l.H.I.z.u.C.J.K.L.r.M.N.O.v.P.Q.R.e.g",
".S.T.U.V.W.X.Y.Z.Z.0.1.Y.W.2.3.4.5.U.6.7.8.9#.###a.T#b#c#d#e#f#g",
"#h#i#j#k#l#i#m#n#n#o#p#q#r#r#s#t#u#v#w#x#y#z#t#A#s#B#C#D#y#E#F#G",
"#H#I#J#K#L#M#H#N#O#P#Q#R#S#T#K#U#V#L#W#X#Y#V#Z#0#1#2#3#4#5#6#7#3",
"#8#9a.a#aaabacadaeafagahaiajakalamanaoapaqarasatauavawaxayazamaA",
"aBaCadaDaEaFaGaHaIaJaKaLaMamabaNaOaPaJaOaHaQaRaMasakaEaSagaTaUaf",
"aVaWaXa#aYaZ#9a0ava1a2.0aca3a3aOama4a5azaqa6a7aYabaVa8a9b.a5aRb#",
"agb.baaybbbca6bdbeaObfbgbhaqa7a3bibjbkblbmaqama6acbnboaab.bpbqaM",
"b.brbsaobtbcaiadbubmambvbwbxbibybzbAbBbCbibmbDaOaqbEbFaabbaZaQbG",
"bHblbIbwbnbJa1aqambbb.bhbKbLa9bMbDbGadaabNbObPbFbFbObQbRa7afambn",
"bSbNbgaabTbmaRaOb.btbUbVbWbXbYbZb0bkb1bbb2b3b4b5b5b6b7bMb8bbbebb",
"b9c.c#aScacbaNaAcbcccdbHbWabb9cebeb1cfaBa3apbXcgchapbXcibsaXagbD",
"bmamcjafbgckbFclcmcncocpcqaIaCaRalbdaVaEcrchb.bbambbcsctbzckcubl",
"b0cva7a.bAcwbzcqcqcxbRa2axckbtcya3czaIa8cAbmcBcCaFaha7cDaecEcwcF",
"bdatajabb2c.aqb.bGbDbtadczbBblaqaba1bEcGcqbYaGaRaQbubeambLbAbZaq",
"#8a6asaLayaVcHcIapa5ctcJaDaqbjcKcGcAcLb6agalasb#a6b#aCagb7amcMcN",
"aEbnaEcObjaAa5b#aicyaCaOabaXa2cgb7bjaxb9aAcPakcQbtaIbYcbaDb.cRb#",
"bna0a8bVb2aVataCcSb.aNaWawcLcTcUa7aLaOaxcoa1aEasbba6cVbxcWbYbubu",
"cXcjcmcFaGcYb.a1aWaqcVcZcuc0bcaAc1ctbAbZbjc2aqbab8brcGc3bkcabbbb",
"cAbPc4apbJc5cAcGcZc6bFc4cqcTadbc#8bucQbec7axaPcacGbycPcCaJcpbyc6",
"bCc8bDaAaYa3a#c9d.d#c4axaDa#aOaHasaiaBaRaddad.cxcpdbbnaAagagaab5",
"aIb9dcapcfadaVaSb7agagagaEb2blczaRaNbmaOaLagaOaeabb9ddaJbeaLaIcW",
"ascfajaudeaicub9aVdfa5aJb#aVctbya7abaqazcfa6a8chcQcQbeaQ#9#9clcg",
"a1acczaqamc6bRczbqdecfaNaWbPc0a4amaqbmaLbGbrbicJa7aqbnaWa7cGdgaI",
"blblamaVbxcFacb1aNbbbbaNbFb5aUcqclbmada3cVdhbzbLbibxazczcab3agcy",
"#3didjdk#Wdldkdmdn#Vdodpdidq#5#5drdsdtdudvdwdxdy#QdzdAdB#WdCdDdE",
"dFdG#u#j#BdHdI#ndJ#ndKdLdMdNdOdOdPdQdR#ndSdTdFdU#tdV#DdWdXdY#q#w",
"dZd0d1d2d3d4d5d6d7cfd8d9e.e#dZeaebec.Ted#eeeef.2egehcfe.eiejekel",
"emeneoepeq.Der.aeseteuevewex.gex.DeyezeAeBeCeDeEeF.h.peGeH.FeB.j",
"eIeJeKeL.PeMeNeO.DePeQ.meR.CeS.FeKeTeU.JeVeWeX.feYeZ.Je0.oe1e2e2",
".ue3e4e5.be6e7e8eZ.se9f..F.if#eBeS.Ge2.PereJ.v.#.a.sfa.d.ofbewfc"};
