/* XPM */
static char *dummy[]={
"32 32 416 2",
".D c #16243a",
"dL c #181c32",
"bA c #182840",
"ef c #191525",
"dT c #191526",
"df c #191d35",
"#F c #1a1627",
"ao c #1a1628",
"ee c #1a1d29",
"bm c #1a1e36",
"bH c #1b1729",
"d9 c #1c1a2d",
"cT c #1d202d",
".u c #1d232a",
"dw c #1d3040",
"dh c #1d3141",
"dn c #1e1c30",
"#p c #1e232b",
"bJ c #1e3243",
"bC c #20262e",
".h c #211f30",
"d4 c #22192d",
"#G c #222133",
"em c #222a2b",
"ex c #231928",
"#1 c #231a30",
"ar c #232134",
"de c #241a31",
"aI c #242235",
"cD c #251b32",
"a0 c #252e2f",
"ed c #262436",
"cI c #271c2c",
"dS c #272537",
"ek c #291727",
"#v c #2a1728",
"bc c #2a283b",
"#H c #2b1829",
".w c #2b2d40",
".P c #2c1a27",
"#u c #2c1c31",
"el c #2c202b",
"#e c #2c2f41",
"cQ c #2d192b",
"#h c #2d212c",
".K c #2d222d",
".2 c #2d2b3a",
"#X c #2e1c29",
"#9 c #2e1d34",
"#a c #2e262f",
"bb c #2f1e35",
"#8 c #2f222e",
"#Z c #2f2739",
"cu c #2f3246",
"Qt c #301929",
"cc c #301d2b",
"b8 c #30232f",
"ei c #30252e",
"#w c #302731",
"d. c #30283b",
"#d c #31212a",
".Y c #312333",
"cM c #312532",
"er c #312832",
"cv c #31293c",
".m c #312c2f",
".6 c #312c35",
"## c #312e3c",
"by c #312f40",
".l c #32202f",
"ds c #32212b",
"bk c #322230",
"#i c #322434",
"d1 c #32303e",
"#Y c #323946",
"dG c #331b2b",
"en c #332025",
"ej c #332727",
"cn c #332a34",
"eu c #332d2d",
"c8 c #341b2c",
"aB c #34232d",
"es c #342837",
"bD c #343c49",
"dM c #35132a",
"aT c #351c2d",
"b0 c #352933",
"d0 c #352938",
".T c #353330",
"d7 c #362334",
"bL c #362738",
"cW c #362c37",
"bn c #363034",
"aR c #36303a",
"bB c #363342",
"#q c #363431",
"#W c #37132b",
"af c #372228",
".F c #37232e",
"bi c #372334",
"an c #373130",
"aS c #382329",
"ct c #382b2b",
"bz c #383231",
"bl c #39142d",
"bd c #392c3c",
"ez c #392d3b",
"di c #3a2538",
"cS c #3a3835",
"bK c #3b2639",
".S c #3c212d",
"#r c #3c2731",
"bE c #3c2733",
"d8 c #3e2537",
"ey c #3e2930",
"e# c #3e2b37",
"dk c #3e313f",
"c5 c #3e394a",
"dC c #3f2230",
"dZ c #3f2638",
".# c #3f3234",
"bR c #3f3241",
"#x c #40252f",
"cl c #402a35",
"dN c #402d34",
"cP c #403041",
"d2 c #403335",
"dO c #403441",
"a# c #41414b",
".v c #42232f",
"a1 c #422432",
"as c #42283b",
"eo c #422a2f",
"ev c #422a37",
"d6 c #422e34",
"e. c #422f3b",
"b9 c #423238",
"#Q c #423643",
"dj c #432f37",
".n c #43343a",
"do c #433638",
"b4 c #43434d",
"aJ c #44293c",
".E c #442a2c",
"bu c #442d35",
"bP c #442f3d",
".X c #451c2f",
"a6 c #452832",
"d3 c #452b34",
"#I c #452c32",
"a2 c #453038",
"#R c #45323e",
"bI c #453739",
"aU c #453846",
"a. c #462d33",
"dB c #463137",
"ah c #46333f",
"#C c #471d31",
"ag c #472633",
"#2 c #47343b",
".3 c #482832",
"bj c #482e34",
"cN c #483440",
"cZ c #483441",
"at c #483c46",
"#J c #491e32",
"cB c #492734",
".s c #492b32",
"bT c #492e3d",
".W c #49313d",
"#B c #493b47",
"cy c #493f3a",
"dU c #4a2933",
"c# c #4a2e38",
"c9 c #4a3431",
"bU c #4a363e",
"be c #4a3940",
"cO c #4a3d48",
"aC c #4b2e30",
"co c #4b2e3a",
"#f c #4b323f",
".j c #4b3943",
"bt c #4c1f34",
"cb c #4c3532",
".1 c #4c3736",
"aD c #4c3c37",
".V c #4c4248",
"#P c #4d2d35",
"cd c #4d3946",
"dx c #4e3237",
"ad c #4e3541",
"aH c #4e3f4c",
"cF c #4f2c37",
".J c #4f343c",
".a c #4f3a3e",
"cA c #502f37",
".i c #503039",
"du c #503a38",
"eh c #503e37",
"et c #512f35",
"c1 c #513040",
"c7 c #51363c",
".L c #513732",
"dV c #513f48",
"cU c #523037",
"aK c #52343a",
"cY c #52383a",
"cR c #523f4a",
"cj c #53373d",
"dH c #533a3f",
"cq c #53484f",
"b2 c #54353f",
"bO c #543d3b",
"#O c #553237",
"c. c #553539",
"dI c #553935",
"dy c #554039",
"bY c #562e39",
"dd c #56323e",
"ck c #563b3e",
"eC c #57313c",
".9 c #573537",
"br c #573942",
"bX c #573d42",
"c4 c #574044",
"dg c #57413b",
"ce c #57444d",
"#o c #582f35",
"b1 c #58333f",
"c0 c #583535",
".t c #583739",
"a4 c #58443c",
"cz c #592738",
"bQ c #593c37",
"dP c #5a3638",
"#n c #5b3134",
"#g c #5b4047",
"#0 c #5c343f",
".C c #5c3c3e",
"bW c #5c3f47",
".B c #5c4247",
"dQ c #5d3137",
"#. c #5e3b34",
"#A c #5e3e3f",
"dR c #5e4449",
"ap c #5f3c3e",
"dF c #603238",
"bs c #603642",
"a5 c #603a3c",
"cr c #613538",
"bG c #613d3f",
"dE c #613f41",
"ci c #61454c",
"dv c #62383e",
"ae c #623e3e",
"b7 c #633b3b",
"cC c #64343b",
"aq c #643a3f",
"dm c #653f38",
"cE c #654244",
"dc c #65463d",
"aG c #654646",
"c3 c #65494e",
"b3 c #663b37",
"cK c #663b41",
"bS c #672d3a",
"cL c #674139",
"bF c #67483e",
".Z c #69474a",
".U c #6a3a37",
".d c #6a4042",
".Q c #6b423a",
"#t c #6b494c",
".g c #6c4f4c",
"#l c #6d3c39",
".x c #6d3f3e",
".b c #6d463b",
"#z c #6e433c",
".R c #6f4242",
"#3 c #703d3a",
".o c #704c3c",
".y c #713e39",
"al c #714446",
"c6 c #723e3c",
"#b c #724443",
"#j c #733f40",
"dt c #734241",
"av c #73463e",
"eg c #734846",
"dJ c #734d3e",
"aQ c #734e51",
".c c #743c39",
"bM c #744648",
"aj c #745552",
"aL c #75403d",
".z c #754042",
".G c #75433c",
".7 c #764038",
"dA c #764142",
".k c #76453f",
"ax c #764840",
"dW c #764a48",
".H c #764c4a",
"#K c #77413c",
"au c #774746",
"bo c #775754",
".M c #78443a",
"aZ c #784544",
"aw c #784d41",
"eb c #793e3a",
"dX c #79413a",
"dl c #79423e",
"ea c #79493f",
".r c #794b42",
"dq c #794c4a",
".p c #794d45",
"#c c #794e4c",
"eA c #7a4437",
".O c #7a4440",
"a7 c #7a4948",
".q c #7b383a",
"bp c #7b4445",
"#y c #7b463c",
"d5 c #7b4a39",
"ai c #7b4d4b",
".4 c #7b4f3e",
"a3 c #7b5342",
"ep c #7b544f",
"#U c #7c433b",
"aY c #7c443f",
"#s c #7c4b40",
".f c #7c4d48",
"#V c #7c504e",
".0 c #7d483e",
"#D c #7e483d",
"aa c #7e4840",
"#k c #7e4c3b",
".I c #7e4e41",
"aP c #7e4f4d",
".e c #7e5b52",
"#7 c #7f4a43",
"dp c #7f4e46",
"#M c #7f5149",
"ab c #7f524f",
"dD c #7f544f",
"bf c #80423f",
"#L c #80483a",
"#E c #804843",
"#m c #804a3f",
".A c #804f47",
"a8 c #814648",
"bv c #814a42",
"eD c #814c44",
"#S c #814e3c",
"eB c #815742",
"d# c #82423e",
"bh c #82463e",
"cw c #824c45",
"db c #825047",
"am c #82534a",
"aM c #825451",
"dY c #825543",
"da c #83493c",
"ec c #83544c",
"#4 c #843d3e",
"aF c #844b40",
"#6 c #845542",
"aA c #854440",
".N c #854a3f",
"cp c #855045",
"aW c #855249",
"aE c #85554c",
"dr c #855745",
"b. c #855853",
"ch c #864b3d",
"az c #864b46",
".5 c #864d47",
"aV c #873e40",
"eq c #874c3f",
"a9 c #87513f",
"ac c #875445",
"aN c #875744",
"ew c #87584f",
"cx c #875c57",
"bx c #88554f",
"ak c #885946",
"cG c #894f44",
".8 c #8a4641",
"bV c #8a5647",
"#N c #8a584f",
"ay c #8a645a",
"bg c #8b544b",
"bq c #8b5b48",
"#5 c #8b5e46",
"dK c #8c5747",
"cH c #8d574e",
"cm c #8e534b",
"cs c #8e6048",
"ba c #8f5346",
"#T c #8f5544",
"dz c #905541",
"cf c #905c53",
"ca c #93554e",
"aO c #935848",
"bw c #945445",
"aX c #945a4b",
"b6 c #946157",
"cJ c #955947",
"bN c #965347",
"cV c #965d4c",
"bZ c #965f50",
"b# c #975944",
"b5 c #97594d",
"c2 c #976252",
"cg c #97655a",
"cX c #985e46",
"Qt.#.a.b.c.d.e.f.g.h.i.j.k.b.l.m.n.o.p.q.r.s.t.u.v.w.x.y.z.A.B.C",
".D.E.F.b.G.H.I.J.K.L.i.M.N.O.r.P.E.F.Q.R.J.s.u.S.T.r.z.U.I.V.W.h",
".X.P.T.Y.Z.0.1.2.j.3.4.b.Z.5.x.pQt.T.Y.J.s.6.E.Y.d.7.O.8.9#.###a",
"#b#c#d#e#f#g#h#i#i#b#j#k#l#m#n#o#p#q#r#s#t#u#v#w#x#y#z#A#B#p#C#q",
"#D#E#E#F#G#H#I#J#K#L#M#D#N#O#P#G#Q#R#S#T#U#V#W#X#Y#Z#P#0#1#J#2#3",
"#4#5#6#7#8#9a.a#aaababacadaeafagahaiajaiakalamanaoapaqarasatauav",
"awaxayazaAaBaCaDazaEaFaGaHaIaJaKaLaMaEaLaNaOaPaQaRaSaTaUaUaMawaM",
"aPaVaWaXaYaZa0a1a2a3a4a5aBa6a6aLa7a8a9b.awa8b#babbbcbdbea9a9aPa7",
"aMa9bfa8bgbha8bibjbkaCblbmbnaCbhboaLbpaEaNbqbrbsaBbmbtbua9aWaZaQ",
"a9aLbvboaWbwbxbobybzaIbAbBbCbDbEbpaQaQbhaybFbGbHbIbJbKbubLaZbvbp",
"b.aEbfb.bMbNa4bOaIbPbQbMaEaYaRbRa2bpbobvbSbFbmbTbTaNbCbUaCaUa7bM",
"a3aVaVbvbVbFbWbHbQbXbYbNbZb.bfb0bUbKb1b2b3bzaKb4bob5awbca6bLbjaZ",
"a7bMaVb6brb7b8b9c.c#awb.aWcaa7a8aBbKcbbOcccdcebfaLcfcgaAb8bUaUa2",
"aDa7chcibSb0bTcjcdaFaZchaLazbVaPaAbibcaTckcla9aZa7aZcmcabpb0cnbe",
"bUcob3bFbAcbbKbkaLaAaWa3a7cpbZcqcrbAbiaIcbaDcpaFchaxchcsaObfctcu",
"bibzb0bbaScvbna9bpcwaWboaQcxaGbObbcyb4bHbka1aCaPbvaMaFa7bacxcpbC",
"cza8aEaRbbbRa2aPaPa9a8bhb5bOcAaSclbQbhazbycBbebda8a7axaMbqbrcCcD",
"aAbxaAbMbHcncbbdbMboaxaLbscEa0cFbIcGcHa7axcIaCa6bUazbfcJcKcLcMcN",
"bMbfcHaAchbcaDcncOa9bvbScKcccPbPchaEcGcHaZa3aTbebLaJcubObFcQcRaM",
"aZchcfcxchbictcSbtbncucEcTc.cUaxbfa8aQcVcGa3awcQccbHbHctcDcNaZaZ",
"a9bMcabWcCcDctbHcWblcDbbbHcvb4bhaVaMbhaFcXcHb6aIbHc#cdaFaRaCaYaV",
"bhaXbGcYcIcUcjb9cZb.a8aIbia2bkaNaEbMawaPaybWbraTc0ckcPbVaMbybubo",
"azbrbrbcbQb4aPaMawb6aMaMaTaCbecuaPbvaNcGaGcibHaKc1cZaQc2cJaEbiaD",
"aGcLb0bHbXcPaxa7aPa9cXaEa7bcaJbEaCa8awc3cLbbcZclcUbhaFbvcscscwcQ",
"a0aBbAbCcZczaWaQaZaWa9aOaVbMaBaJbdbObFaGcDbkb4cUchawbMaVchcAb7bi",
"c4c4aIbcbIc5aFbpbvaZaZbvcmayawbHa2aDbDccbAcubKc#boawb.aQbrbFbyb4",
"c6akc7c8c9d.d#alauabdadbakdcdddedfdg#4aadhdidjdkamdlamaddmdnahdo",
"dpdqdr#Dds#Y#Qdt#Ddt#U#NdudvdwdwdxdydzdtdA#1#2dBdCdDdEdFdGdHdI#3",
"#ldJdK#odLdM#qdNdO#AdPdQdRdSdTdUdVdWdXdY#k#j#ddZd0dZ#Ad1d2d3#y#z",
".G.0.Vd4.Pd5.g.6#ad6d7d8d4d9e.e#d5.Ueaebec.Oebedee.lef.E.Y.Meg.k",
".keheie..U.N.R.Zejekelemenee.Eeoea.4d5.R.Oepeq.eereies.T.reb.U.0",
"eteuev.p.cegew.bea.Dexe..M.2eyezeA.c.U.U.geBeC.1.6.w.w.g.r.keD#."};
