/* XPM */
static char *dummy[]={
"32 32 340 2",
"de c #536b88",
"dk c #55617c",
"dl c #567189",
"dc c #586a7e",
"dg c #5a6882",
"c9 c #5b6480",
"dm c #5b6e7e",
"bW c #5b7695",
"c7 c #5c647e",
"bS c #5c6f8f",
"ay c #5d6b88",
"b8 c #5e718a",
"da c #5f6b85",
"bU c #5f7c97",
"d# c #60627d",
"as c #606f8d",
"dn c #616582",
"aD c #61748b",
"di c #62687e",
"db c #626f88",
"dq c #636a80",
"az c #63728f",
"dh c #64697e",
"bT c #646e8d",
"at c #64798b",
"ar c #656e8a",
"dd c #666c80",
"dp c #666d83",
"d. c #667084",
"dj c #67697c",
"dr c #686c7e",
"c8 c #68717f",
"an c #687692",
"c0 c #69464c",
"cY c #6a3939",
"bX c #6a6c89",
"c2 c #6b413c",
"aA c #6b6f8f",
"c6 c #6c4e4e",
"ax c #6c6f89",
"av c #6c728b",
"bY c #6c7a95",
"aq c #6d748d",
"aw c #6e738b",
"cX c #6f4243",
"#C c #6f4247",
".8 c #703f41",
"cV c #704b3e",
"ch c #704b51",
"bR c #70778d",
"ap c #707890",
"aG c #707b91",
"aC c #707d96",
"aE c #717388",
"bP c #71738e",
"ao c #72698a",
"aB c #72778a",
"bQ c #727c8c",
"ac c #734d53",
"cZ c #743b3a",
"b3 c #74454a",
"ag c #753f3f",
"cS c #753f43",
".Z c #763f3a",
".B c #764440",
"#6 c #764742",
"cz c #76494a",
".U c #764c4c",
"#q c #77403e",
"#7 c #775656",
"c3 c #78433c",
"bh c #784446",
"#5 c #784c43",
"cL c #793d3c",
"cW c #794841",
".M c #794a44",
"cP c #794f4d",
"cU c #7a4339",
"c5 c #7a4342",
"ad c #7a484a",
"bK c #7b4347",
"#h c #7b453e",
"c1 c #7b493b",
"c4 c #7b4e40",
"cG c #7c3f3e",
"bo c #7c4341",
"#O c #7e4742",
"aj c #7e4e4f",
"do c #7e94ad",
"#2 c #7f4944",
"co c #7f4e48",
"cT c #7f8ea6",
".e c #7f91aa",
"bO c #804140",
"ae c #81454a",
"af c #814944",
"bN c #824540",
"ah c #825353",
"a. c #844a42",
".A c #8492aa",
".L c #8497a7",
"#9 c #854342",
"bI c #854f47",
"bF c #85514b",
"ab c #85544d",
"bu c #855755",
"df c #8590a6",
"cR c #8590a8",
".7 c #8594ad",
"am c #864a3f",
"#8 c #864a48",
"bJ c #875041",
"ai c #875646",
"#B c #88a1b7",
"cK c #8992a7",
".T c #8997ad",
"#1 c #8998b2",
"bV c #8ba3be",
"#N c #8ba4bb",
".n c #8c90a7",
"cO c #8c96aa",
"cb c #8c9bb5",
"bG c #8c9cb6",
"aR c #8c9fbb",
"#g c #8d94ab",
"bg c #8f9fb9",
"b6 c #8fa3b8",
"cF c #909aaf",
"bM c #91a1bb",
"bZ c #929eb7",
"bH c #929eb9",
"ct c #93a0b4",
"#p c #9494b0",
"cn c #949aae",
"b4 c #94a4bc",
"au c #959db7",
"cg c #96a4bb",
"bz c #979fb7",
"aF c #979fbb",
"bE c #97a1b8",
"b5 c #97a2b9",
"b2 c #9a9eb8",
"b7 c #9aa4ba",
"bt c #9aa5bb",
"al c #9aa7bc",
"ba c #9aa8bf",
"br c #9ba1b6",
"a0 c #9ba5b7",
"aa c #9ba8b9",
".t c #ae5042",
".K c #af432f",
".P c #af493a",
".I c #af4a33",
".S c #b04837",
".w c #b04e33",
".O c #b05645",
".v c #b14732",
"cN c #b14737",
".Y c #b14c39",
".J c #b14c3a",
".R c #b15434",
".m c #b17a62",
".z c #b17e65",
".c c #b17e6a",
".o c #b18270",
"cM c #b2503f",
".4 c #b25244",
".p c #b27e67",
".# c #b28165",
".d c #b28872",
".F c #b34531",
".N c #b3493a",
".5 c #b34b3c",
".x c #b34c34",
".f c #b37f6a",
".j c #b38565",
".H c #b44831",
"cx c #b44a38",
"cJ c #b44d37",
"#b c #b45034",
".y c #b45542",
"cw c #b45947",
".q c #b47d64",
".X c #b54733",
".E c #b54c33",
".1 c #b54d3b",
"cI c #b55137",
".G c #b5523b",
".W c #b5553e",
".0 c #b55745",
".Q c #b64233",
".9 c #b64938",
".u c #b64c2f",
".D c #b64c38",
".C c #b65231",
"#c c #b65635",
".V c #b65636",
".b c #b67c63",
".r c #b67e6a",
".i c #b68168",
"#f c #b68268",
".h c #b68670",
"cv c #b75240",
"cy c #b78169",
"#a c #b84732",
"#e c #b84b3c",
"cB c #b84d35",
"cl c #b84d3d",
"Qt c #b87d65",
".g c #b88069",
"cQ c #b88368",
".l c #b8846a",
".a c #b8866c",
".s c #b88872",
"## c #b94a32",
"cu c #b94c39",
"ci c #b95236",
".2 c #b95744",
"cr c #b95b49",
".k c #b97965",
"cH c #ba4934",
".3 c #ba4e34",
"#m c #ba4f3c",
"#w c #ba4f3d",
"#d c #ba5339",
"#i c #ba543d",
"#j c #bb4334",
"cc c #bb4833",
"#u c #bb4b35",
"#E c #bb4b39",
"cD c #bb4e31",
"cA c #bb4e3a",
"#R c #bb4e3e",
"#Q c #bb4f37",
"#. c #bb5432",
"b9 c #bb5647",
"cC c #bb5937",
".6 c #bb8468",
"#Y c #bc5437",
"#t c #bc5442",
"#X c #bc5d4a",
"#n c #bd4934",
"#y c #bd4c34",
"#D c #bd4d3d",
"cq c #bd4f37",
"cj c #bd5139",
"#V c #bd513e",
"#v c #bd5946",
"cs c #bd8369",
"cE c #bd8b75",
"ck c #be4b36",
"ce c #be4c36",
"c# c #be4c3b",
"#k c #be5036",
"#F c #be563e",
"#s c #be5941",
"#H c #be5a38",
"#z c #bf4536",
"#r c #bf5032",
"#l c #bf503b",
"#x c #bf5634",
"#W c #bf5643",
"bd c #bf5849",
"cp c #bf5b38",
"#A c #bf8468",
"ca c #bf876e",
"cf c #bf8b6c",
"cm c #bf8d76",
"a3 c #c04a34",
"#L c #c04e3e",
"a8 c #c05040",
"#K c #c05138",
"#o c #c0876a",
"cd c #c14d35",
"bn c #c14f3c",
"#J c #c1533b",
"bf c #c15638",
"#P c #c15b47",
"a5 c #c15f4c",
"#U c #c24c37",
"c. c #c25237",
"bB c #c2533f",
"b# c #c25340",
"#S c #c2573c",
"#Z c #c25b42",
"#4 c #c25e4a",
"ak c #c28f7b",
"#G c #c34637",
"bb c #c34e37",
"bc c #c34e3c",
"#T c #c35233",
"#3 c #c3523d",
"bm c #c35c39",
"#I c #c35d3a",
"aP c #c3866c",
"aY c #c38a74",
"b1 c #c38b6f",
"bp c #c45845",
"#M c #c48a6c",
"aL c #c48a71",
"aS c #c48e6f",
"aT c #c4957d",
"bk c #c54c36",
"bD c #c55040",
"a4 c #c55339",
"aX c #c58c74",
"bL c #c5926f",
"a7 c #c64f36",
"be c #c6553c",
"a9 c #c65d49",
"aU c #c68972",
"#0 c #c6916e",
"bl c #c74e38",
"bA c #c75438",
"bv c #c7593d",
"a6 c #c75a41",
"bj c #c75d44",
"bi c #c7604c",
"by c #c78f78",
"bq c #c84838",
"bw c #c85434",
"bx c #c8543e",
"a2 c #c85a36",
"b. c #c85f3b",
"aJ c #c8886d",
"aM c #c88a6d",
"aK c #c88a74",
"aZ c #c88d6f",
"b0 c #c88e72",
"aH c #c8937b",
"aO c #c98d6f",
"bs c #ca896f",
"a# c #ca8d6c",
"aN c #ca8d73",
"a1 c #ca9175",
"aV c #ca9377",
"bC c #ca957d",
"aQ c #cb856f",
"aI c #cb916d",
"aW c #cb9571",
"Qt.#.a.#.b.c.d.e.d.f.g.h.i.#.g.#.a.j.a.k.l.m.i.#.n.o.p.q.r.f.s.l",
".t.u.v.w.x.y.z.A.B.C.D.E.F.D.G.H.u.v.I.J.J.K.w.b.L.M.N.K.I.O.P.J",
".Q.H.R.S.t.K.#.T.U.F.V.w.t.N.S.W.X.R.S.Y.K.W.u.p.e.Z.D.Q.x.C.0.I",
".1.2.3.4.5.2.6.7.8.1.9#..F.F###a#b#c.F#d.4#e#a#f#g#h.x#i.4#b#j#c",
"#k#l#l#a#m#n#o#p#q#r#s#k#t#u#a#m#v#w#x#k#y#v#z#A#B#C#a#D#E#z#F#a",
"#G#H#I#J#K#L#M#N#O#P#P#Q#R#S#T#U#V#W#X#W#Y#R#Z#0#1#2#3#V#L#4#V#Q",
"#5#6#7#8#9a.a#aa#8aba.abacadaeafagahabagaiafajakalam#9ahahah#5ah",
"anaoapaqarasatauaqatatavawaxaxayazaAaBaCaDaAaEaraFanazaGaBaBanaz",
"aHaIaJaKaLaMaKaNaOaPa#aQaRaSa#aMaTaPaUaVaWaSaXaKaOaYaQaZa0a1aLak",
"a2a3a4a5a6a7a8a5a9b.b#akba#5a5bbbcbdbda7a5b.bea3bfa5bcaZbgbha4bc",
"bibjbkbia8blbmbfb#bna2aYalbobjbpbebca5a4bqb.a8bcbcb.bfa1brahb#a8",
"bmbqbqa4#Kb.bpa3a2a6blbsbtbubkbva6bcbcbnbwb.a4a5a5bxbfbybzbhbAbn",
"bBa8bqa9bBbAa4#KbAbbbfbCbtaeb#bDbAbca2bfa7bpbibka3bpbibsbEbFa9be",
"b.bBbwa9bqbvbcbebpbAbna#bG#8#Kbpblbxbpblbva3a2bnb#bnbcaKbHbI#Kbj",
"bF#8amaiacbJbKagag#9bFbLbMbIbF#7bNac#8adbJaibIa.am#6ambLbEbObJac",
"bPbQbRaAaEbSaDaBbTaqapbUbVbWaGaDaAatbUayaybXaEanavbYawazbZbWbRaD",
"aQaKalaVaKbyb0bybyaIaKaMaNaSaPa#aPaIbzaNaHbsaVaXaKaXb1aHaSaXbsaU",
"blaYb2b3a3#Ka2b#a8a5#Ka3bDa6bmbkbfaPbMad#Kbbbwa7a6bxbkbAbxa2bebB",
"a8aJbM#9bwbpb.#Kbia2a4bqbxa7a8bnbwaVbGadbnbmblbjbnbDbdbfb.bka9a9",
"bna#b4acbwbxa2bmbqbfbda6#KbAa7#KbkaKbVbIa3bmbfbka7a3a3a2bcbBbnbn",
"a2aYaFajblbca2a3a6bqbcbDa3a8a5a7bqaHbza.a2b#a9bBa3bbbpbAbjbwbbbq",
"a7b0b5#6bba7be#Kb#bibDb#bxbea3b.bjaYb6aja5bpb#blbwbva8#Ka9a9a4a5",
"#8aXbMajbJ#7ajah#5ahahah#9amabacajafaaagabahagafaeadacaba.ab#8ai",
"aGaBb7ayapbSb8azanaBaBaGazanaAaraEaAb6aCaBaAazayaxaxawavatataqbX",
"bLaOakaSaXaQa1akaLa1a0aZaQaYaOaKaXaSaWaVaUaPaTaMa#aSaRaQa#aPaOaN",
"#Z#Z#V#W#Yb9c.c##Kcacb#Oc##X#Ycc#J#I#Xcdb9b9c#ce#Xcfcgch#V#I#P#X",
"#acicjck#xclckcl#wcmcncocicp#E#Eclcp#zcqcr#Ecj#t#scsct#C#xcu#wci",
"#icv#b.3.3cw.2cx.3cy#gcz#bcAcwcwcBcCcDcx.9.9#i#d#acEcFcGcH#i#..F",
".K.RcI.F.P.Q.RcJ.y.lcKcL.0cM.K.F.0cM.H.w.CcN.E.N.J.rcOcP.w.v.E.I",
".x.K.OcN.H.C.O.W.IcQcRcScN.S.J.S.C.KcI.XcM.D.XcM.I.gcTcU.S.EcMcJ",
".BcVcWcXcYcZcXc0c1.bcKcVcUc2cUc3cWc4c1cXc5c0.Zc6.McQ.AcV.McLcYcY",
"c7c8c9d.d#dadbdcdddedfdgdhdbdidadjd#dkdkdldmdndcd.dedodldpdqc9dr"};
